<svg id="Ebene_1" data-name="Ebene 1" xmlns="http://www.w3.org/2000/svg" width="40" height="40"><defs><style>.cls-1,.cls-7{fill:none}.cls-4{isolation:isolate}.cls-7{stroke:#00708d;stroke-linejoin:round;stroke-width:3px}.cls-15{fill:#00708d}</style><clipPath id="clip-path"><rect class="cls-1" x="8" width="24" height="40" rx=".89"/></clipPath><clipPath id="clip-path-2"><path class="cls-1" d="M4-4h31v47H4z"/></clipPath><clipPath id="clip-path-3"><path class="cls-1" d="M8 0h24v40H8z"/></clipPath><clipPath id="clip-path-4"><rect class="cls-1" x="8" y="5.5" width="24" height="29" rx=".89"/></clipPath><clipPath id="clip-path-5"><path class="cls-1" d="M4 2h31v36H4z"/></clipPath><clipPath id="clip-path-6"><path class="cls-1" d="M8 5h24v30H8z"/></clipPath><clipPath id="clip-path-7"><path d="M24 3.5a.76.76 0 0 1-.75.75h-6.5a.75.75 0 0 1 0-1.5h6.5a.76.76 0 0 1 .75.75z" clip-rule="evenodd" fill="none"/></clipPath><clipPath id="clip-path-8"><path class="cls-1" d="M13-1h14v9H13z"/></clipPath><clipPath id="clip-path-9"><path class="cls-1" d="M16 2h8v3h-8z"/></clipPath><clipPath id="clip-path-10"><circle class="cls-1" cx="27.75" cy="3.5" r=".75"/></clipPath><clipPath id="clip-path-11"><circle class="cls-1" cx="20" cy="36.5" r="1"/></clipPath></defs><g clip-path="url(#clip-path)"><g clip-path="url(#clip-path-2)"><g clip-path="url(#clip-path-3)"><rect class="cls-7" x="8" width="24" height="40" rx=".89"/></g></g></g><g clip-path="url(#clip-path-4)"><g clip-path="url(#clip-path-5)"><g clip-path="url(#clip-path-6)"><rect class="cls-7" x="8" y="5.5" width="24" height="29" rx=".89"/></g></g></g><g clip-path="url(#clip-path-7)"><g clip-path="url(#clip-path-8)"><g clip-path="url(#clip-path-9)"><path class="cls-7" d="M24 3.5a.76.76 0 0 1-.75.75h-6.5a.75.75 0 0 1 0-1.5h6.5a.76.76 0 0 1 .75.75z"/></g></g></g><g clip-path="url(#clip-path-10)"><path class="cls-15" d="M22-2.25h11.5v11.5H22z"/></g><g clip-path="url(#clip-path-11)"><path class="cls-15" d="M14 30.5h12v12H14z"/></g></svg>