<!-- Icon copied from Extra Theme by Elegant Themes. See the license.txt file in the Divi Extras plugin root directory for more information and licenses -->
<svg version="1.1" xmlns="http://www.w3.org/2000/svg" width="1024" height="1024" viewBox="0 0 1024 1024">
<path d="M896 291.2v-99.2c0.018-0.559 0.028-1.217 0.028-1.877 0-35.346-28.654-64-64-64-5.464 0-10.768 0.685-15.83 1.973l0.443-0.096-504.32 128h-120.32c-106.039 0-192 85.961-192 192v0 128c0 106.039 85.961 192 192 192v0h64v192c0 35.346 28.654 64 64 64s64-28.654 64-64v0-174.080l432.64 110.080h15.36c35.346 0 64-28.654 64-64v0-99.2c76.189-45.287 126.449-127.174 126.449-220.8s-50.26-175.512-125.272-220.151l-1.177-0.649zM256 640h-64c-35.346 0-64-28.654-64-64v0-128c0-35.346 28.654-64 64-64v0h64zM768 750.080l-384-96v-284.16l384-96z"></path>
</svg>
