<!-- Icon copied from Extra Theme by Elegant Themes. See the license.txt file in the Divi Extras plugin root directory for more information and licenses -->
<svg version="1.1" xmlns="http://www.w3.org/2000/svg" width="1024" height="1024" viewBox="0 0 1024 1024">
<path d="M960 0c-35.346 0-64 28.654-64 64v0 64h-768v-64c0-35.346-28.654-64-64-64s-64 28.654-64 64v0 128c0 35.346 28.654 64 64 64v0h896c35.346 0 64-28.654 64-64v0-128c0-35.346-28.654-64-64-64v0zM960 320h-896c-35.346 0-64 28.654-64 64v0 256c0 35.346 28.654 64 64 64v0h896c35.346 0 64-28.654 64-64v0-256c0-35.346-28.654-64-64-64v0zM896 576h-768v-128h768zM960 768h-896c-35.346 0-64 28.654-64 64v0 128c0 35.346 28.654 64 64 64s64-28.654 64-64v0-64h768v64c0 35.346 28.654 64 64 64s64-28.654 64-64v0-128c0-35.346-28.654-64-64-64v0z"></path>
</svg>
