<!-- Icon copied from Extra Theme by Elegant Themes. See the license.txt file in the Divi Extras plugin root directory for more information and licenses -->
<svg version="1.1" xmlns="http://www.w3.org/2000/svg" width="1024" height="1024" viewBox="0 0 1024 1024">
<path d="M384 0h-320c-35.346 0-64 28.654-64 64v0 192c0 35.346 28.654 64 64 64v0h320c35.346 0 64-28.654 64-64v0-192c0-35.346-28.654-64-64-64v0zM320 192h-192v-64h192zM960 0h-320c-35.346 0-64 28.654-64 64v0 448c0 35.346 28.654 64 64 64v0h320c35.346 0 64-28.654 64-64v0-448c0-35.346-28.654-64-64-64v0zM896 448h-192v-320h192zM384 448h-320c-35.346 0-64 28.654-64 64v0 448c0 35.346 28.654 64 64 64v0h320c35.346 0 64-28.654 64-64v0-448c0-35.346-28.654-64-64-64v0zM320 896h-192v-320h192zM960 704h-320c-35.346 0-64 28.654-64 64v0 192c0 35.346 28.654 64 64 64v0h320c35.346 0 64-28.654 64-64v0-192c0-35.346-28.654-64-64-64v0zM896 896h-192v-64h192z"></path>
</svg>
