<!-- Icon copied from Extra Theme by Elegant Themes. See the license.txt file in the Divi Extras plugin root directory for more information and licenses -->
<svg version="1.1" xmlns="http://www.w3.org/2000/svg" width="1024" height="1024" viewBox="0 0 1024 1024">
<path d="M576 960c0 35.346-28.654 64-64 64s-64-28.654-64-64c0-35.346 28.654-64 64-64s64 28.654 64 64zM832 960c0 35.346-28.654 64-64 64s-64-28.654-64-64c0-35.346 28.654-64 64-64s64 28.654 64 64zM320 960c0 35.346-28.654 64-64 64s-64-28.654-64-64c0-35.346 28.654-64 64-64s64 28.654 64 64zM960 0h-896c-35.346 0-64 28.654-64 64v0 704c0 35.346 28.654 64 64 64v0h896c35.346 0 64-28.654 64-64v0-704c0-35.346-28.654-64-64-64v0zM896 704h-768v-576h768zM320 384h384c35.346 0 64-28.654 64-64s-28.654-64-64-64v0h-384c-35.346 0-64 28.654-64 64s28.654 64 64 64v0zM320 576h128c35.346 0 64-28.654 64-64s-28.654-64-64-64v0h-128c-35.346 0-64 28.654-64 64s28.654 64 64 64v0z"></path>
</svg>
