<!-- Icon copied from Extra Theme by Elegant Themes. See the license.txt file in the Divi Extras plugin root directory for more information and licenses -->
<svg version="1.1" xmlns="http://www.w3.org/2000/svg" width="1024" height="1024" viewBox="0 0 1024 1024">
<path d="M1024 320c0-35.346-28.654-64-64-64v0h-64c-35.346 0-64 28.654-64 64v0 384c0 35.346 28.654 64 64 64v0h64c35.346 0 64-28.654 64-64s-28.654-64-64-64v0-256c35.346 0 64-28.654 64-64v0zM768 704v-384c0-35.346-28.654-64-64-64v0h-384c-35.346 0-64 28.654-64 64v0 384c0 35.346 28.654 64 64 64v0h384c35.346 0 64-28.654 64-64v0zM640 640h-256v-256h256zM192 320c0-35.346-28.654-64-64-64v0h-64c-35.346 0-64 28.654-64 64s28.654 64 64 64v0 256c-35.346 0-64 28.654-64 64s28.654 64 64 64v0h64c35.346 0 64-28.654 64-64v0zM576 896c0 35.346-28.654 64-64 64s-64-28.654-64-64c0-35.346 28.654-64 64-64s64 28.654 64 64zM832 896c0 35.346-28.654 64-64 64s-64-28.654-64-64c0-35.346 28.654-64 64-64s64 28.654 64 64zM320 896c0 35.346-28.654 64-64 64s-64-28.654-64-64c0-35.346 28.654-64 64-64s64 28.654 64 64z"></path>
</svg>
