<!-- Icon copied from Extra Theme by Elegant Themes. See the license.txt file in the Divi Extras plugin root directory for more information and licenses -->
<svg version="1.1" xmlns="http://www.w3.org/2000/svg" width="1024" height="1024" viewBox="0 0 1024 1024">
<path d="M960 64h-896c-35.346 0-64 28.654-64 64v0 768c0 35.346 28.654 64 64 64v0h896c35.346 0 64-28.654 64-64v0-768c0-35.346-28.654-64-64-64v0zM512 192h128v128h-128zM896 832h-768v-640h256v192c0 35.346 28.654 64 64 64v0h448zM896 320h-128v-128h128z"></path>
</svg>
