<?xml version="1.0" encoding="utf-8"?>
<!-- Generator: Adobe Illustrator 25.4.1, SVG Export Plug-In . SVG Version: 6.00 Build 0)  -->
<svg version="1.1" id="Ebene_1" xmlns="http://www.w3.org/2000/svg" xmlns:xlink="http://www.w3.org/1999/xlink" x="0px" y="0px"
	 viewBox="0 0 18 19" style="enable-background:new 0 0 18 19;" xml:space="preserve">
<style type="text/css">
	.st0{fill:#00708D;}
</style>
<g id="Bewerbungsrenner-Website-Relaunch-Desktop-_x2013_-Seiten">
	<g id="StyleGuide" transform="translate(-971.000000, -1874.000000)">
		<path id="ico-search-inactive" class="st0" d="M988.6,1890.6l-4.3-4.5c1.1-1.3,1.7-3,1.7-4.7c0-4.1-3.3-7.4-7.4-7.4
			s-7.4,3.3-7.4,7.4s3.3,7.4,7.4,7.4c1.5,0,3-0.5,4.2-1.3l4.4,4.5c0.2,0.2,0.4,0.3,0.7,0.3c0.2,0,0.5-0.1,0.7-0.3
			C989,1891.6,989,1891,988.6,1890.6z M978.7,1875.9c3,0,5.4,2.4,5.4,5.4s-2.4,5.4-5.4,5.4s-5.4-2.4-5.4-5.4
			S975.7,1875.9,978.7,1875.9z"/>
	</g>
</g>
</svg>
