<?xml version="1.0" encoding="utf-8"?>
<!-- Generator: Adobe Illustrator 25.4.1, SVG Export Plug-In . SVG Version: 6.00 Build 0)  -->
<svg version="1.1" id="Ebene_1" xmlns="http://www.w3.org/2000/svg" xmlns:xlink="http://www.w3.org/1999/xlink" x="0px" y="0px"
	 viewBox="0 0 48 48" style="enable-background:new 0 0 48 48;" xml:space="preserve">
<style type="text/css">
	.st0{fill:#00708D;}
</style>
<path class="st0" d="M20.5,6C12.5,6,6,12.5,6,20.5S12.5,35,20.5,35c3.5,0,6.6-1.2,9.1-3.2l9.8,9.8c0.6,0.6,1.5,0.6,2.1,0
	s0.6-1.5,0-2.1c0,0,0,0,0,0l-9.8-9.8c2-2.5,3.2-5.7,3.2-9.1C35,12.5,28.5,6,20.5,6z M20.5,9C26.9,9,32,14.1,32,20.5
	c0,3.1-1.2,5.9-3.2,8c-0.1,0.1-0.2,0.2-0.3,0.3c-2.1,2-4.9,3.2-8,3.2C14.1,32,9,26.9,9,20.5S14.1,9,20.5,9z"/>
</svg>
